<?xml version="1.0" encoding="utf-8"?>
<!-- Generator: Adobe Illustrator 28.4.1, SVG Export Plug-In . SVG Version: 6.00 Build 0)  -->
<svg version="1.1" id="Layer_1" xmlns="http://www.w3.org/2000/svg" xmlns:xlink="http://www.w3.org/1999/xlink" x="0px" y="0px"
	 viewBox="0 0 800 800" xml:space="preserve">
<style type="text/css">
	.st0{fill:none;stroke:#000000;stroke-width:20;stroke-miterlimit:125;stroke-dasharray:50,25;}
	.st1{fill:none;stroke:#000000;stroke-width:25;stroke-miterlimit:125;}
	.st2{fill:none;stroke:#000000;stroke-width:20;stroke-miterlimit:10;}
	.st3{fill:none;stroke:#FFFFFF;stroke-width:60;stroke-miterlimit:10;}
</style>
<line class="st0" x1="784.3" y1="311.5" x2="15.7" y2="311.5"/>
<line class="st1" x1="15.7" y1="142" x2="784.3" y2="142"/>
<line class="st1" x1="15.7" y1="669.1" x2="784.3" y2="669.1"/>
<line class="st1" x1="22.4" y1="175.7" x2="161.8" y2="282.3"/>
<line class="st0" x1="172.1" y1="133.8" x2="172.1" y2="680.8"/>
<g>
	<ellipse cx="552.8" cy="495.8" rx="137.3" ry="137.4"/>
	<g>
		<path d="M552.8,369c69.9,0,126.8,56.9,126.8,126.8s-57,126.8-126.8,126.8S426,565.7,426,495.8S482.9,369,552.8,369 M552.8,347.8
			c-81.8,0-148,66.3-148,148s66.2,148,148,148s148-66.3,148-148S634.6,347.8,552.8,347.8L552.8,347.8z"/>
	</g>
</g>
<line class="st2" x1="97.3" y1="463.2" x2="97.3" y2="379"/>
<line class="st2" x1="297.1" y1="281.9" x2="297.1" y2="171.6"/>
<line class="st2" x1="56.4" y1="593.4" x2="56.4" y2="509.2"/>
<line class="st2" x1="97.3" y1="593.4" x2="97.3" y2="509.2"/>
<line class="st2" x1="422.2" y1="281.9" x2="422.2" y2="171.6"/>
<line class="st2" x1="462.4" y1="281.9" x2="462.4" y2="171.6"/>
<line class="st2" x1="632.6" y1="281.9" x2="632.6" y2="171.6"/>
<line class="st2" x1="599.9" y1="281.9" x2="599.9" y2="171.6"/>
<line class="st2" x1="567.1" y1="281.9" x2="567.1" y2="171.6"/>
<line class="st3" x1="552.8" y1="387.5" x2="552.8" y2="604.1"/>
<line class="st3" x1="661.1" y1="495.8" x2="444.5" y2="495.8"/>
</svg>
