<?xml version="1.0" encoding="utf-8"?>
<!-- Generator: Adobe Illustrator 25.4.1, SVG Export Plug-In . SVG Version: 6.00 Build 0)  -->
<svg version="1.1" id="Layer_1" xmlns="http://www.w3.org/2000/svg" xmlns:xlink="http://www.w3.org/1999/xlink" x="0px" y="0px"
	 viewBox="0 0 800 800" style="enable-background:new 0 0 800 800;" xml:space="preserve">
<style type="text/css">
	.st0{fill:none;stroke:#000000;stroke-width:66.6667;stroke-miterlimit:133.3333;}
	.st1{fill:#1A2734;}
	.st2{fill:#FFFFFF;}
</style>
<g id="SVGRepo_bgCarrier">
</g>
<g id="SVGRepo_tracerCarrier">
</g>
<g id="SVGRepo_iconCarrier">
	<path class="st0" d="M466.7,633.3h66.7c36.8,0,66.7-29.8,66.7-66.7v-81.3c0-30.6,20.8-57.3,50.5-64.7l50.5-12.6
		c8.4-2.1,8.4-14.1,0-16.2l-50.5-12.6c-29.7-7.4-50.5-34.1-50.5-64.7V166.7H466.7"/>
	<path class="st0" d="M333.3,166.7h-66.7c-36.8,0-66.7,29.8-66.7,66.7v81.3c0,30.6-20.8,57.3-50.5,64.7L99,391.9
		c-8.4,2.1-8.4,14.1,0,16.2l50.5,12.6c29.7,7.4,50.5,34.1,50.5,64.7v147.9h133.3"/>
</g>
<path class="st1" d="M400,272.9c43.9,0,79.4,35.6,79.4,79.4c17.5,0,31.8,14.2,31.8,31.8v111.2c0,17.5-14.2,31.8-31.8,31.8H320.6
	c-17.5,0-31.8-14.2-31.8-31.8V384.1c0-17.5,14.2-31.8,31.8-31.8C320.6,308.5,356.1,272.9,400,272.9z"/>
<path class="st2" d="M447.7,352.3c0-26.3-21.3-47.7-47.7-47.7s-47.7,21.3-47.7,47.7H447.7z"/>
<rect x="320.6" y="384.1" class="st2" width="158.9" height="111.2"/>
<rect x="384.1" y="415.9" class="st1" width="31.8" height="47.7"/>
</svg>
