<?xml version="1.0" encoding="utf-8"?>
<!-- Generator: Adobe Illustrator 25.4.1, SVG Export Plug-In . SVG Version: 6.00 Build 0)  -->
<svg version="1.1" id="Layer_1" xmlns="http://www.w3.org/2000/svg" xmlns:xlink="http://www.w3.org/1999/xlink" x="0px" y="0px"
	 viewBox="0 0 800 800" style="enable-background:new 0 0 800 800;" xml:space="preserve">
<style type="text/css">
	.st0{fill:#1A2734;}
	.st1{fill:#FFFFFF;}
</style>
<g id="SVGRepo_bgCarrier">
</g>
<g id="SVGRepo_tracerCarrier">
</g>
<path class="st0" d="M257.4,212.7c25.4,0,46,20.6,46,46c10.1,0,18.4,8.2,18.4,18.4v64.4c0,10.1-8.2,18.4-18.4,18.4h-91.9
	c-10.1,0-18.4-8.2-18.4-18.4V277c0-10.1,8.2-18.4,18.4-18.4C211.4,233.3,232,212.7,257.4,212.7z"/>
<path class="st1" d="M285,258.6c0-15.2-12.3-27.6-27.6-27.6c-15.3,0-27.6,12.3-27.6,27.6H285z"/>
<rect x="211.4" y="277" class="st1" width="92" height="64.4"/>
<rect x="248.2" y="295.5" class="st0" width="18.4" height="27.6"/>
<path class="st0" d="M623.1,438.5l3.9,3.5l96.2,96.2c14.9,14.9,16.4,38.7,3.5,55.4l-3.5,3.9l-96.2,96.2c-16.4,16.4-43,16.3-59.3-0.1
	c-14.9-14.9-16.4-38.6-3.5-55.3l3.5-3.9l24.5-24.6H441.9c-23.2,0-41.9-18.8-41.9-41.9s18.8-41.9,41.9-41.9h150.3l-24.5-24.5
	c-14.9-14.9-16.4-38.7-3.5-55.4l3.5-3.9C582.7,427,606.4,425.5,623.1,438.5z"/>
<path class="st0" d="M567.8,94.2c46.3,0,83.9,37.6,83.9,83.9v167.8h-83.9V178H148.4v419.4l112.4-160.6c13.3-19,39.4-23.6,58.4-10.4
	c4,2.8,7.6,6.3,10.4,10.4l51.7,73.9c-36.3,45.1-29.2,111.1,15.9,147.4c16.8,13.5,37.4,21.5,58.9,22.9l6.9,0.2H148.4
	c-46.3,0-83.9-37.6-83.9-83.9V178c0-46.3,37.6-83.9,83.9-83.9H567.8z"/>
<circle class="st0" cx="421" cy="324.8" r="62.9"/>
</svg>
