<?xml version="1.0" encoding="utf-8"?>
<!-- Generator: Adobe Illustrator 25.4.1, SVG Export Plug-In . SVG Version: 6.00 Build 0)  -->
<svg version="1.1" id="Layer_1" xmlns="http://www.w3.org/2000/svg" xmlns:xlink="http://www.w3.org/1999/xlink" x="0px" y="0px"
	 viewBox="0 0 512 512" style="enable-background:new 0 0 512 512;" xml:space="preserve">
<style type="text/css">
	.st0{fill:#EDEDED;}
	.st1{fill:#D8D8DA;}
	.st2{fill:#88888F;}
	.st3{fill:#797781;}
	.st4{fill:#FFFFFF;}
	.st5{display:none;fill:#2E2D31;}
	.st6{fill:none;}
	.stFontFamilyCardID{font-family:'SimHei';}
	.stFontSizeCardID{font-size:28px;}
	.stFontSizeNotes{font-size:22px;}
	.st12{fill:#E07188;}
	.st13{fill:#F8E99B;}
</style>
<path class="st0" d="M465.7,416.4H46.3c-20.4,0-37-16.7-37-37V132.6c0-20.4,16.7-37,37-37h419.5c20.4,0,37,16.7,37,37v246.7
	C502.7,399.7,486.1,416.4,465.7,416.4z"/>
<path class="st1" d="M465.7,95.6H404c20.4,0,37,16.7,37,37v246.7c0,20.4-16.7,37-37,37h61.7c20.4,0,37-16.7,37-37V132.6
	C502.7,112.3,486.1,95.6,465.7,95.6z"/>
<rect x="9.3" y="169.6" class="st2" width="493.5" height="74"/>
<rect x="441.1" y="169.6" class="st3" width="61.7" height="74"/>
<g>
	<path class="st4" d="M430.4,317.9H203.7c-5.9,0-10.6-4.9-10.6-11s4.8-11,10.6-11h226.7c5.9,0,10.6,4.9,10.6,11
		C441.1,313,436.3,317.9,430.4,317.9z"/>
	<path class="st4" d="M402.1,353.4H203.7c-5.9,0-10.6-4.9-10.6-11s4.8-11,10.6-11h198.4c5.9,0,10.6,4.9,10.6,11
		S408,353.4,402.1,353.4z"/>
</g>
<path class="st5" d="M502.7,160.4L502.7,160.4H120.2c-5.1,0-9.3,4.1-9.3,9.3c0,5.1,4.1,9.3,9.3,9.3h373.2v55.5h-475V179h64.8
	c5.1,0,9.3-4.1,9.3-9.3c0-5.1-4.1-9.3-9.3-9.3H18.5v-27.8c0-15.3,12.5-27.8,27.8-27.8h419.5c15.3,0,27.8,12.5,27.8,27.8
	c0,5.1,4.1,9.3,9.3,9.3s9.3-4.1,9.3-9.3c0-25.5-20.8-46.3-46.3-46.3H46.3C20.8,86.4,0,107.1,0,132.6v246.7
	c0,25.5,20.8,46.3,46.3,46.3h419.5c25.5,0,46.3-20.8,46.3-46.3V169.6l0,0C512,164.5,507.9,160.4,502.7,160.4z M465.7,407.1H46.3
	c-15.3,0-27.8-12.5-27.8-27.8V252.9h475v126.5C493.5,394.7,481,407.1,465.7,407.1z"/>
<rect x="193.1" y="295.9" class="st6" width="272.5" height="22"/>
<text transform="matrix(0.9115 0 0 1 195.9766 316.6548)" class="stFontFamilyCardID stFontSizeCardID">%1</text>
<rect x="197.6" y="332.8" class="st6" width="76.4" height="22"/>
<text transform="matrix(1.0213 0 0 1 197.6084 351.2861)" class="stFontFamilyCardID stFontSizeCardID">%2</text>
<rect x="359.6" y="332.6" class="st6" width="50.6" height="22"/>
<text transform="matrix(0.9749 0 0 1 359.5889 351.9814)" class="stFontFamilyCardID stFontSizeCardID">%3</text>
<rect x="53.2" y="260" class="st6" width="306.4" height="27.1"/>
<text transform="matrix(1 0 0 1 63.3966 280.754)" class="stFontFamilyCardID stFontSizeCardID">%4</text>
<rect x="46.1" y="111.1" class="st6" width="419.7" height="56.2"/>
<text transform="matrix(1 0 0 1 53.4134 127.1437)" class="stFontFamilyNotes stFontSizeNotes">Notes: </text>
<text transform="matrix(1 0 0 1 128.6134 125.7252)" class="stFontFamilyNotes stFontSizeNotes">%5</text>
<text transform="matrix(1 0 0 1 47.0134 152.1252)" class="stFontFamilyNotes stFontSizeNotes">项注意事项注意事项注意事项注意事项注意</text>
<ellipse class="st12" cx="101.2" cy="328.1" rx="37" ry="37"/>
<ellipse class="st13" cx="150.5" cy="328.1" rx="37" ry="37"/>
</svg>
