<svg width="32" height="32" viewBox="0 0 32 32"  xmlns="http://www.w3.org/2000/svg" style="enable-background:new 0 0 32 32;">
<path d="M17.1087 2.96801C15.8038 2.43949 14.4122 2.17236 12.9532 2.17236C10.9432 2.17236 9.06521 2.67936 7.37221 3.67836C5.66921 4.67536 4.29921 6.04436 3.30321 7.74636C2.30321 9.44336 1.79721 11.3204 1.79721 13.3284C1.79721 15.3354 2.30321 17.2184 3.30221 18.9254C4.29921 20.6274 5.66921 21.9954 7.37121 22.9934C9.06721 23.9934 10.9452 24.5004 12.9532 24.5004C14.2102 24.5004 15.4372 24.2964 16.6052 23.8934C17.6262 23.5294 18.5822 23.0314 19.4522 22.4094L26.3272 29.2844L26.4454 29.3968C26.7705 29.6798 27.1745 29.8284 27.6252 29.8284C28.1322 29.8284 28.5802 29.6404 28.9162 29.2914C29.2722 28.9354 29.4532 28.5004 29.4532 28.0004C29.4532 27.4864 29.2692 27.0484 28.9162 26.7094L22.0342 19.8274L22.2623 19.4961C22.7808 18.7141 23.2025 17.8697 23.5192 16.9764C23.5438 16.9055 23.5676 16.8343 23.5906 16.7629C22.5204 15.9382 21.34 15.5965 20.3365 14.6712C20.185 15.5235 19.8865 16.3334 19.4442 17.0904C19.2762 17.3754 19.0922 17.6464 18.8942 17.9024C18.2992 18.6734 17.5692 19.3164 16.7152 19.8194C14.4262 21.1574 11.4772 21.1584 9.20621 19.8194C8.05621 19.1474 7.13221 18.2284 6.46321 17.0924C5.79321 15.9454 5.45321 14.6794 5.45321 13.3284C5.45321 11.9784 5.79321 10.7174 6.46321 9.58036C7.13321 8.43336 8.05621 7.51036 9.20721 6.83736C10.3412 6.16836 11.6022 5.82836 12.9532 5.82836C13.1588 5.82836 13.3624 5.83625 13.564 5.85197C13.7671 4.8359 14.4537 3.90878 15.6239 3.49414L17.1087 2.96801Z" /><path d="M23.1494 0.458859C22.9326 -0.152954 22.0674 -0.152953 21.8506 0.45886L21.1765 2.36124C20.7106 3.67616 19.6762 4.7106 18.3612 5.17652L16.4589 5.8506C15.847 6.06738 15.847 6.93262 16.4589 7.1494L18.3612 7.82348C19.6762 8.2894 20.7106 9.32384 21.1765 10.6388L21.8506 12.5411C22.0674 13.153 22.9326 13.153 23.1494 12.5411L23.8235 10.6388C24.2894 9.32384 25.3238 8.2894 26.6388 7.82348L28.5411 7.1494C29.153 6.93262 29.153 6.06738 28.5411 5.8506L26.6388 5.17652C25.3238 4.7106 24.2894 3.67616 23.8235 2.36124L23.1494 0.458859Z" /><path d="M28.8497 11.2471C28.7329 10.9176 28.2671 10.9176 28.1503 11.2471L27.7874 12.2714C27.5365 12.9795 26.9795 13.5365 26.2714 13.7874L25.2471 14.1503C24.9176 14.2671 24.9176 14.7329 25.2471 14.8497L26.2714 15.2126C26.9795 15.4635 27.5365 16.0205 27.7874 16.7286L28.1503 17.7529C28.2671 18.0824 28.7329 18.0824 28.8497 17.7529L29.2126 16.7286C29.4635 16.0205 30.0205 15.4635 30.7286 15.2126L31.7529 14.8497C32.0824 14.7329 32.0824 14.2671 31.7529 14.1503L30.7286 13.7874C30.0205 13.5365 29.4635 12.9795 29.2126 12.2714L28.8497 11.2471Z" />
</svg>
