<?xml version="1.0" encoding="utf-8"?>
<!-- Generator: Adobe Illustrator 25.4.1, SVG Export Plug-In . SVG Version: 6.00 Build 0)  -->
<svg version="1.1" id="Layer_1" xmlns="http://www.w3.org/2000/svg" xmlns:xlink="http://www.w3.org/1999/xlink" x="0px" y="0px"
	 viewBox="0 0 512 512" style="enable-background:new 0 0 512 512;" xml:space="preserve">
<style type="text/css">
	.st0{fill:#EDEDED;}
	.st1{fill:#D8D8DA;}
	.st2{fill:#88888F;}
	.st3{fill:#797781;}
	.st4{fill:#FFFFFF;}
	.st5{display:none;fill:#2E2D31;}
	.st6{fill:none;}
	.stFontFamilyCardID{font-family:'SimHei';}
	.stFontSizeCardID{font-size:28px;}
	.stFontSizeNotes{font-size:22px;}
	.st15{fill:#D10429;}
	.st16{fill:#022E64;}
	.st17{fill:#076F74;}
	.st18{fill:#FEFEFE;}
</style>
<path class="st0" d="M465.7,416.4H46.3c-20.4,0-37-16.7-37-37V132.6c0-20.4,16.7-37,37-37h419.5c20.4,0,37,16.7,37,37v246.7
	C502.7,399.7,486.1,416.4,465.7,416.4z"/>
<path class="st1" d="M465.7,95.6H404c20.4,0,37,16.7,37,37v246.7c0,20.4-16.7,37-37,37h61.7c20.4,0,37-16.7,37-37V132.6
	C502.7,112.3,486.1,95.6,465.7,95.6z"/>
<rect x="9.3" y="169.6" class="st2" width="493.5" height="74"/>
<rect x="441.1" y="169.6" class="st3" width="61.7" height="74"/>
<g>
	<path class="st4" d="M430.4,317.9H203.7c-5.9,0-10.6-4.9-10.6-11s4.8-11,10.6-11h226.7c5.9,0,10.6,4.9,10.6,11
		C441.1,313,436.3,317.9,430.4,317.9z"/>
	<path class="st4" d="M402.1,353.4H203.7c-5.9,0-10.6-4.9-10.6-11s4.8-11,10.6-11h198.4c5.9,0,10.6,4.9,10.6,11
		S408,353.4,402.1,353.4z"/>
</g>
<path class="st5" d="M502.7,160.4L502.7,160.4H120.2c-5.1,0-9.3,4.1-9.3,9.3c0,5.1,4.1,9.3,9.3,9.3h373.2v55.5h-475V179h64.8
	c5.1,0,9.3-4.1,9.3-9.3c0-5.1-4.1-9.3-9.3-9.3H18.5v-27.8c0-15.3,12.5-27.8,27.8-27.8h419.5c15.3,0,27.8,12.5,27.8,27.8
	c0,5.1,4.1,9.3,9.3,9.3s9.3-4.1,9.3-9.3c0-25.5-20.8-46.3-46.3-46.3H46.3C20.8,86.4,0,107.1,0,132.6v246.7
	c0,25.5,20.8,46.3,46.3,46.3h419.5c25.5,0,46.3-20.8,46.3-46.3V169.6l0,0C512,164.5,507.9,160.4,502.7,160.4z M465.7,407.1H46.3
	c-15.3,0-27.8-12.5-27.8-27.8V252.9h475v126.5C493.5,394.7,481,407.1,465.7,407.1z"/>
<rect x="193.1" y="295.9" class="st6" width="272.5" height="22"/>
<text transform="matrix(0.9115 0 0 1 195.9766 316.6548)" class="stFontFamilyCardID stFontSizeCardID">%1</text>
<rect x="197.6" y="332.8" class="st6" width="76.4" height="22"/>
<text transform="matrix(1.0213 0 0 1 197.6084 351.2861)" class="stFontFamilyCardID stFontSizeCardID">%2</text>
<rect x="359.6" y="332.6" class="st6" width="50.6" height="22"/>
<text transform="matrix(0.9749 0 0 1 359.5889 351.9814)" class="stFontFamilyCardID stFontSizeCardID">%3</text>
<rect x="53.2" y="260" class="st6" width="306.4" height="27.1"/>
<text transform="matrix(1 0 0 1 63.3966 280.754)" class="stFontFamilyCardID stFontSizeCardID">%4</text>
<rect x="46.1" y="111.1" class="st6" width="419.7" height="56.2"/>
<text transform="matrix(1 0 0 1 53.4134 127.1437)" class="stFontFamilyNotes stFontSizeNotes">Notes: </text>
<text transform="matrix(1 0 0 1 128.6134 125.7252)" class="stFontFamilyNotes stFontSizeNotes">%5</text>
<text transform="matrix(1 0 0 1 47.0134 152.1252)" class="stFontFamilyNotes stFontSizeNotes">项注意事项注意事项注意事项注意事项注意</text>
<path class="st15" d="M78.2,291.1h32.9c4.6,0,7.5,3.8,6.4,8.4l-15.3,66.4c-1.1,4.6-5.7,8.4-10.3,8.4H59c-4.6,0-7.5-3.8-6.4-8.4
	l15.3-66.4C69,294.8,73.6,291.1,78.2,291.1L78.2,291.1L78.2,291.1z"/>
<path class="st16" d="M108.2,291.1H146c4.6,0,2.5,3.8,1.4,8.4l-15.3,66.4c-1.1,4.6-0.7,8.4-5.3,8.4H89c-4.6,0-7.5-3.8-6.4-8.4
	L98,299.5C99,294.8,103.6,291.1,108.2,291.1L108.2,291.1L108.2,291.1z"/>
<path class="st17" d="M144.7,291.1h32.9c4.6,0,7.5,3.8,6.4,8.4l-15.3,66.4c-1.1,4.6-5.7,8.4-10.3,8.4h-32.9c-4.6,0-7.5-3.8-6.4-8.4
	l15.3-66.4C135.5,294.8,140.1,291.1,144.7,291.1L144.7,291.1L144.7,291.1z"/>
<path class="st18" d="M139.2,353.6h3.1l0.9-3h-3.1L139.2,353.6z M141.7,345.3l-1.1,3.6c0,0,1.2-0.6,1.8-0.8c0.6-0.1,1.6-0.3,1.6-0.3
	l0.7-2.5L141.7,345.3L141.7,345.3z M143.2,340.2l-1,3.4c0,0,1.1-0.5,1.8-0.7c0.6-0.2,1.6-0.2,1.6-0.2l0.7-2.5L143.2,340.2
	L143.2,340.2L143.2,340.2z M150.1,340.2l-4,13.4h1.1l-0.8,2.8h-1.1l-0.3,0.8h-3.8l0.3-0.8h-7.7l0.8-2.6h0.8l4.1-13.6l0.8-2.8h3.9
	l-0.4,1.4c0,0,1-0.7,2-1s6.6-0.4,6.6-0.4l-0.8,2.7L150.1,340.2L150.1,340.2L150.1,340.2z"/>
<path class="st18" d="M151.7,337.5h4.2v1.6c0,0.3,0.2,0.4,0.7,0.4h0.8l-0.8,2.6h-2.2c-1.9,0.1-2.7-0.7-2.6-1.6L151.7,337.5
	L151.7,337.5z M152.2,349.8h-4l0.7-2.3h4.5l0.6-2.1h-4.5l0.8-2.6h12.4l-0.8,2.6h-4.2l-0.6,2.1h4.2l-0.7,2.3h-4.5l-0.8,1h1.8l0.5,2.9
	c0,0.3,0,0.5,0.1,0.6s0.6,0.1,1,0.1h0.5l-0.9,2.8h-1.4c-0.2,0-0.5,0-1,0c-0.4,0-0.7-0.3-1-0.4s-0.6-0.4-0.7-1l-0.4-2.9l-2.1,2.8
	c-0.6,0.9-1.5,1.6-3,1.6h-2.9l0.8-2.5h1.1c0.3,0,0.6-0.1,0.8-0.2s0.4-0.2,0.6-0.5L152.2,349.8L152.2,349.8z M108.8,343.5h10.5
	l-0.8,2.5h-4.2l-0.6,2.1h4.3l-0.8,2.6h-4.3l-1.1,3.5c-0.1,0.4,1,0.4,1.4,0.4l2.2-0.3l-0.9,2.9h-4.8c-0.4,0-0.7,0-1.1-0.1
	s-0.6-0.3-0.8-0.6c-0.2-0.3-0.5-0.5-0.3-1.1l1.4-4.6h-2.4l0.8-2.7h2.4l0.6-2.1h-2.4L108.8,343.5L108.8,343.5L108.8,343.5z
	 M116.1,338.9h4.3l-0.8,2.6h-5.9l-0.6,0.6c-0.3,0.3-0.4,0.2-0.7,0.4c-0.3,0.2-1,0.5-1.9,0.5h-1.9l0.8-2.5h0.6c0.5,0,0.8,0,1-0.1
	s0.4-0.4,0.6-0.8l1.1-2h4.3L116.1,338.9L116.1,338.9L116.1,338.9z M124.2,343.2c0,0,1.2-1.1,3.2-1.4c0.5-0.1,3.3,0,3.3,0l0.4-1.4h-6
	L124.2,343.2L124.2,343.2L124.2,343.2z M129.8,344.4h-6l-0.4,1.2h5.2c0.6-0.1,0.7,0,0.8,0L129.8,344.4L129.8,344.4z M122.1,337.5
	h3.7l-0.5,1.9c0,0,1.1-0.9,2-1.3c0.8-0.3,2.6-0.6,2.6-0.6h5.9l-2,6.8c-0.3,1.2-0.7,1.9-1,2.3c-0.2,0.3-0.5,0.7-1,0.9
	c-0.5,0.3-1,0.4-1.4,0.5c-0.4,0-1,0-1.8,0h-5.7l-1.6,5.4c-0.1,0.5-0.2,0.8-0.1,0.9s0.3,0.3,0.5,0.3l2.5-0.2l-0.9,2.9h-2.8
	c-0.9,0-1.6,0-2,0s-0.9,0-1.2-0.2c-0.3-0.2-0.7-0.6-0.6-0.9c0-0.3,0.1-0.8,0.3-1.4L122.1,337.5z"/>
<path class="st18" d="M132.7,348.3l-0.3,1.6c-0.1,0.5-0.3,0.9-0.6,1.2c-0.4,0.3-0.9,0.7-2,0.7l-2,0.1v1.8c0,0.5,0.1,0.5,0.2,0.6
	c0.1,0.1,0.2,0.1,0.3,0.2h0.6l1.9-0.1l-0.8,2.7h-2.2c-1.6,0-2.7,0-3.1-0.3c-0.4-0.2-0.4-0.5-0.4-1.1l0.1-7.2h3.6v1.5h0.9
	c0.3,0,0.5,0,0.6-0.1s0.2-0.2,0.2-0.4l0.4-1.2L132.7,348.3L132.7,348.3L132.7,348.3z M82,312.3c-0.1,0.6-2.4,11.2-2.4,11.2
	c-0.5,2.1-0.9,3.7-2.1,4.7c-0.7,0.6-1.5,0.8-2.4,0.8c-1.5,0-2.4-0.7-2.5-2.2v-0.5l0.5-2.9c0,0,2.4-9.7,2.8-11c0-0.1,0-0.1,0-0.1
	c-4.7,0-5.5,0-5.5-0.1c0,0.1-0.1,0.7-0.1,0.7l-2.4,10.9l-0.2,0.9l-0.4,3c0,0.9,0.2,1.6,0.5,2.2c1.1,2,4.3,2.3,6.1,2.3
	c2.3,0,4.5-0.5,6-1.4c2.6-1.5,3.2-3.9,3.8-6l0.3-1.1c0,0,2.5-10.1,2.9-11.4c0-0.1,0-0.1,0-0.1C83.4,312.4,82.4,312.4,82,312.3
	L82,312.3L82,312.3z M95.7,332.3c-1.6,0-2.2,0-4.2,0.1l-0.1-0.1c0.2-0.7,0.4-1.5,0.5-2.2l0.2-1c0.4-1.6,0.7-3.4,0.7-4
	c0-0.3,0.1-1.2-0.8-1.2c-0.4,0-0.8,0.2-1.2,0.4c-0.2,0.8-0.7,3.2-0.9,4.3c-0.5,2.3-0.5,2.5-0.7,3.6l-0.1,0.1c-1.7,0-2.3,0-4.3,0.1
	l-0.1-0.2c0.3-1.4,0.6-2.7,1-4.1c0.8-3.6,1-5,1.2-6.9l0.2-0.1c1.9-0.3,2.4-0.3,4.4-0.7l0.2,0.2l-0.3,1.2c0.4-0.2,0.7-0.4,1.1-0.6
	c1-0.5,2.1-0.6,2.7-0.6c0.9,0,1.9,0.3,2.3,1.3c0.4,0.9,0.1,2.1-0.4,4.4l-0.3,1.2c-0.5,2.6-0.6,3-0.9,4.8L95.7,332.3L95.7,332.3
	L95.7,332.3z M102.4,332.3c-1,0-1.6,0-2.3,0c-0.6,0-1.2,0-2.2,0.1v-0.1v-0.1c0.3-1,0.4-1.3,0.5-1.6c0.1-0.3,0.2-0.7,0.5-1.7
	c0.3-1.3,0.5-2.2,0.6-3c0.1-0.7,0.2-1.4,0.3-2.1h0.1l0.1-0.1c1-0.1,1.6-0.2,2.3-0.3c0.6-0.1,1.3-0.2,2.3-0.4v0.1v0.1l-0.6,2.4
	c-0.2,0.8-0.4,1.6-0.5,2.4c-0.4,1.7-0.5,2.3-0.6,2.8c-0.1,0.4-0.1,0.7-0.3,1.5l-0.1,0.1L102.4,332.3L102.4,332.3L102.4,332.3z
	 M113,326.4c-0.1,0.4-0.5,2.1-1,2.7c-0.4,0.5-0.8,0.8-1.2,0.8c-0.1,0-1,0-1-1.2c0-0.6,0.1-1.2,0.3-1.9c0.4-2,1-3.6,2.3-3.6
	C113.4,323.2,113.5,324.4,113,326.4L113,326.4z M117.3,326.6c0.6-2.6,0.1-3.8-0.4-4.5c-0.9-1.1-2.4-1.5-4-1.5c-1,0-3.2,0.1-5,1.7
	c-1.3,1.2-1.9,2.8-2.2,4.3c-0.4,1.6-0.8,4.4,1.8,5.5c0.8,0.3,1.9,0.4,2.7,0.4c1.9,0,3.8-0.5,5.3-2.1
	C116.7,329.3,117.2,327.4,117.3,326.6L117.3,326.6L117.3,326.6z M157.6,332.6c-2,0-2.6,0-4.4,0.1l-0.1-0.1c0.5-1.9,1-3.8,1.5-5.8
	c0.6-2.5,0.7-3.6,0.9-5l0.1-0.1c2-0.3,2.5-0.4,4.6-0.7v0.2c-0.4,1.6-0.7,3.2-1.1,4.7c-0.8,3.3-1,5-1.3,6.7L157.6,332.6L157.6,332.6
	L157.6,332.6z"/>
<path class="st18" d="M154.7,326.7c-0.1,0.4-0.5,2.1-1,2.7c-0.3,0.5-1.1,0.8-1.6,0.8c-0.1,0-0.9,0-1-1.2c0-0.6,0.1-1.2,0.3-1.9
	c0.4-1.9,1-3.5,2.3-3.5C154.7,323.6,155.2,324.8,154.7,326.7L154.7,326.7L154.7,326.7z M158.7,326.9c0.6-2.6-1.8-0.2-2.1-1.1
	c-0.6-1.3-0.2-4-2.5-4.9c-0.9-0.4-3,0.1-4.7,1.7c-1.2,1.2-1.9,2.8-2.2,4.3c-0.4,1.5-0.8,4.4,1.8,5.4c0.8,0.4,1.6,0.5,2.3,0.4
	c2.6-0.1,4.5-4.1,6-5.6C158.3,326,158.5,327.6,158.7,326.9L158.7,326.9z M128.7,332.3c-1.6,0-2.2,0-4.2,0.1l-0.1-0.1
	c0.2-0.7,0.4-1.5,0.5-2.2l0.2-1c0.4-1.6,0.7-3.4,0.7-4c0-0.3,0.1-1.2-0.8-1.2c-0.4,0-0.8,0.2-1.2,0.4c-0.2,0.8-0.7,3.2-0.9,4.3
	c-0.5,2.3-0.5,2.5-0.7,3.6l-0.1,0.1c-1.7,0-2.3,0-4.3,0.1l-0.1-0.2c0.3-1.4,0.6-2.7,1-4.1c0.8-3.6,1-5,1.2-6.9l0.1-0.1
	c1.9-0.3,2.4-0.3,4.4-0.7l0.2,0.2l-0.3,1.2c0.3-0.2,0.7-0.4,1-0.6c1-0.5,2.1-0.6,2.7-0.6c0.9,0,1.9,0.3,2.3,1.3
	c0.4,0.9,0.1,2.1-0.4,4.4l-0.3,1.2C129.1,330.1,129,330.5,128.7,332.3L128.7,332.3L128.7,332.3L128.7,332.3z M143,312.3h-1.4
	c-3.6,0-5,0-5.6,0c0,0.3-0.1,0.7-0.1,0.7l-1.3,6c0,0-3.1,12.7-3.2,13.3c3.1,0,4.4,0,4.9,0c0.1-0.6,0.8-4.2,0.9-4.2
	c0,0,0.6-2.6,0.6-2.7c0,0,0.2-0.3,0.4-0.4h0.3c2.7,0,5.7,0,8.1-1.8c1.6-1.2,2.7-3,3.2-5.2c0.1-0.5,0.2-1.2,0.2-1.8
	c0-0.8-0.2-1.7-0.6-2.3C148.2,312.4,145.8,312.3,143,312.3L143,312.3z M144.8,318.6c-0.3,1.3-1.1,2.5-2.2,3c-0.9,0.5-2,0.5-3.2,0.5
	h-0.7v-0.3l1.4-6v-0.3v-0.2h0.5c0,0,2.8,0.2,2.9,0.2C144.6,316,145.1,317.1,144.8,318.6L144.8,318.6z M174.2,320.6l-0.2-0.2
	c-2,0.4-2.4,0.5-4.3,0.7l-0.1,0.1c0,0,0,0,0,0.1l0,0c-1.4,3.3-1.4,2.6-2.5,5.1c0-0.1,0-0.2,0-0.3l-0.3-5.6l-0.2-0.2
	c-2.2,0.4-2.2,0.5-4.2,0.7l-0.1,0.1c0,0.1,0,0.1,0,0.2l0,0c0.2,1.3,0.2,1,0.4,3c0.1,1,0.3,2,0.4,2.9c0.2,1.6,0.3,2.4,0.5,4.9
	c-1.3,2.2-1.6,3.1-2.9,5l0.1,0.2c1.9-0.1,2.4-0.1,3.8-0.1l0.3-0.4C166,334.8,174.2,320.6,174.2,320.6L174.2,320.6L174.2,320.6z
	 M104.2,322.2c1.1-0.8,1.2-1.8,0.3-2.4c-0.9-0.6-2.6-0.4-3.7,0.4c-1.1,0.7-1.2,1.8-0.3,2.4C101.5,323.1,103.1,322.9,104.2,322.2z"/>
<path class="st18" d="M164.6,337.5l-1.6,2.8c-0.5,0.9-1.5,1.7-2.9,1.7h-2.6l0.7-2.5h0.5c0.3,0,0.5,0,0.6-0.1c0.1,0,0.2-0.1,0.3-0.3
	l1-1.5L164.6,337.5L164.6,337.5L164.6,337.5z"/>
</svg>
