<?xml version="1.0" encoding="utf-8"?>
<!-- Generator: Adobe Illustrator 25.4.1, SVG Export Plug-In . SVG Version: 6.00 Build 0)  -->
<svg version="1.1" id="Layer_1" xmlns="http://www.w3.org/2000/svg" xmlns:xlink="http://www.w3.org/1999/xlink" x="0px" y="0px"
	 viewBox="0 0 512 512" style="enable-background:new 0 0 512 512;" xml:space="preserve">
<style type="text/css">
	.st0{fill:#EDEDED;}
	.st1{fill:#D8D8DA;}
	.st2{fill:#88888F;}
	.st3{fill:#797781;}
	.st4{fill:#FFFFFF;}
	.st5{display:none;fill:#2E2D31;}
	.st6{fill:none;}
	.stFontFamilyCardID{font-family:'SimHei';}
	.stFontSizeCardID{font-size:28px;}
	.stFontSizeNotes{font-size:22px;}
	.st15{fill:#0E4595;}
	.st16{fill:#F2AE14;}
</style>
<path class="st0" d="M465.7,416.4H46.3c-20.4,0-37-16.7-37-37V132.6c0-20.4,16.7-37,37-37h419.5c20.4,0,37,16.7,37,37v246.7
	C502.7,399.7,486.1,416.4,465.7,416.4z"/>
<path class="st1" d="M465.7,95.6H404c20.4,0,37,16.7,37,37v246.7c0,20.4-16.7,37-37,37h61.7c20.4,0,37-16.7,37-37V132.6
	C502.7,112.3,486.1,95.6,465.7,95.6z"/>
<rect x="9.3" y="169.6" class="st2" width="493.5" height="74"/>
<rect x="441.1" y="169.6" class="st3" width="61.7" height="74"/>
<g>
	<path class="st4" d="M430.4,317.9H203.7c-5.9,0-10.6-4.9-10.6-11s4.8-11,10.6-11h226.7c5.9,0,10.6,4.9,10.6,11
		C441.1,313,436.3,317.9,430.4,317.9z"/>
	<path class="st4" d="M402.1,354.4H203.7c-5.9,0-10.6-4.9-10.6-11s4.8-11,10.6-11h198.4c5.9,0,10.6,4.9,10.6,11
		S408,354.4,402.1,354.4z"/>
</g>
<path class="st5" d="M502.7,160.4L502.7,160.4H120.2c-5.1,0-9.3,4.1-9.3,9.3c0,5.1,4.1,9.3,9.3,9.3h373.2v55.5h-475V179h64.8
	c5.1,0,9.3-4.1,9.3-9.3c0-5.1-4.1-9.3-9.3-9.3H18.5v-27.8c0-15.3,12.5-27.8,27.8-27.8h419.5c15.3,0,27.8,12.5,27.8,27.8
	c0,5.1,4.1,9.3,9.3,9.3s9.3-4.1,9.3-9.3c0-25.5-20.8-46.3-46.3-46.3H46.3C20.8,86.4,0,107.1,0,132.6v246.7
	c0,25.5,20.8,46.3,46.3,46.3h419.5c25.5,0,46.3-20.8,46.3-46.3V169.6l0,0C512,164.5,507.9,160.4,502.7,160.4z M465.7,407.1H46.3
	c-15.3,0-27.8-12.5-27.8-27.8V252.9h475v126.5C493.5,394.7,481,407.1,465.7,407.1z"/>
<rect x="193.1" y="295.9" class="st6" width="272.5" height="22"/>
<text transform="matrix(0.9115 0 0 1 195.9766 316.6548)" class="stFontFamilyCardID stFontSizeCardID">%1</text>
<rect x="197.6" y="332.8" class="st6" width="76.4" height="22"/>
<text transform="matrix(1.0213 0 0 1 197.6084 351.2861)" class="stFontFamilyCardID stFontSizeCardID">%2</text>
<rect x="359.6" y="332.6" class="st6" width="50.6" height="22"/>
<text transform="matrix(0.9749 0 0 1 359.5889 351.9814)" class="stFontFamilyCardID stFontSizeCardID">%3</text>
<rect x="53.2" y="260" class="st6" width="306.4" height="27.1"/>
<text transform="matrix(1 0 0 1 63.3966 280.754)" class="stFontFamilyCardID stFontSizeCardID">%4</text>
<rect x="46.1" y="111.1" class="st6" width="419.7" height="56.2"/>
<text transform="matrix(1 0 0 1 53.4134 127.1437)" class="stFontFamilyNotes stFontSizeNotes">Notes: </text>
<text transform="matrix(1 0 0 1 128.6134 125.7252)" class="stFontFamilyNotes stFontSizeNotes">%5</text>
<text transform="matrix(1 0 0 1 47.0134 152.1252)" class="stFontFamilyNotes stFontSizeNotes">项注意事项注意事项注意事项注意事项注意</text>
<rect x="58.6" y="291.4" class="st15" width="123.4" height="79.1"/>
<path class="st4" d="M105,346.5l5.3-31h8.4l-5.3,31H105z M143.9,316.2c-1.7-0.6-4.3-1.3-7.6-1.3c-8.3,0-14.2,4.2-14.3,10.2
	c0,4.4,4.2,6.9,7.4,8.4c3.3,1.5,4.4,2.5,4.4,3.8c0,2.1-2.6,3-5,3c-3.4,0-5.2-0.5-7.9-1.6l-1.1-0.5l-1.2,6.9c2,0.9,5.6,1.6,9.4,1.7
	c8.9,0,14.6-4.2,14.7-10.6c0-3.5-2.2-6.2-7.1-8.4c-2.9-1.4-4.8-2.4-4.7-3.8c0-1.3,1.5-2.7,4.8-2.7c2.8,0,4.8,0.6,6.3,1.2l0.8,0.4
	L143.9,316.2 M165.6,315.6h-6.5c-2,0-3.5,0.6-4.4,2.6l-12.5,28.4h8.9c0,0,1.4-3.8,1.8-4.7c1,0,9.6,0,10.8,0c0.3,1.1,1,4.6,1,4.6h7.8
	L165.6,315.6L165.6,315.6z M155.3,335.6c0.7-1.8,3.4-8.7,3.4-8.7c0,0.1,0.7-1.8,1.1-3l0.6,2.7c0,0,1.6,7.4,2,8.9h-7.1V335.6z
	 M97.8,315.6l-8.3,21.1l-0.9-4.3c-1.5-4.9-6.3-10.3-11.7-13l7.6,27.1h8.9l13.3-30.9L97.8,315.6"/>
<path class="st16" d="M81.8,315.6H68.2l-0.1,0.6c10.6,2.6,17.6,8.8,20.5,16.2l-3-14.2C85.1,316.2,83.7,315.6,81.8,315.6"/>
</svg>
